<?xml version="1.0" encoding="utf-8"?>
<!-- Generator: Adobe Illustrator 25.0.0, SVG Export Plug-In . SVG Version: 6.00 Build 0)  -->
<svg version="1.1" id="paper-icon" xmlns="http://www.w3.org/2000/svg" xmlns:xlink="http://www.w3.org/1999/xlink" x="0px" y="0px"
	 viewBox="0 0 60 100" style="enable-background:new 0 0 60 100;" xml:space="preserve">
<style type="text/css">
	.st0{fill:#FFFFFF;stroke:#434345;stroke-miterlimit:10;}
	.st1{fill:#97999C;}
</style>
<g id="paper">
	<path id="top-lip" class="st0" d="M23.48,6.52c0,0,15,0,18.48,0c1.31,0,3.64,0.44,4.83,1.53c1.98,1.82,2.53,9.36,2.3,17.46H34.08
		L23.48,6.52z"/>
	<path id="main-page" class="st0" d="M34.08,6.52h-59.05c-7.24,0.68-8.83,7.46-9.11,11.59v3.17V91h59.65h3.54
		c2.33-0.38,4.95-1.71,4.96-5.8c0-17.01-0.01-65.81,0-69.19c0.01-1.19,0.13-4.46,1.17-5.89c2.55-3.52,8.52-4.44,10.7-2.65
		C45.95,7.48,45.49,6.16,34.08,6.52z"/>
	<g id="text-lines">
		<rect x="-25.63" y="15.41" class="st1" width="44.28" height="2.38"/>
		<rect x="-25.63" y="21.79" class="st1" width="52.24" height="2.38"/>
		<g>
			<rect x="3.09" y="28.18" class="st1" width="23.52" height="2.38"/>
		</g>
		<rect x="-17.71" y="34.56" class="st1" width="44.28" height="2.38"/>
		<rect x="-26.77" y="40.95" class="st1" width="53.22" height="2.38"/>
		<g>
			<rect x="-9.72" y="47.34" class="st1" width="18.74" height="2.38"/>
			<rect x="11.85" y="47.34" class="st1" width="7.61" height="2.38"/>
		</g>
		<rect x="-26.77" y="53.72" class="st1" width="44.28" height="2.38"/>
		<g>
			<rect x="3.09" y="60.11" class="st1" width="23.52" height="2.38"/>
		</g>
		<rect x="-26.98" y="66.49" class="st1" width="53.22" height="2.38"/>
		<rect x="18.4" y="72.88" class="st1" width="8.17" height="2.38"/>
		<rect x="18.8" y="82.21" class="st1" width="7.77" height="2.38"/>
	</g>
	<g id="bottom-lip">
		<path class="st0" d="M18.44,72.01H-34.6h-6.36h-8.65c-0.23,8.1,0.32,15.64,2.3,17.46c1.19,1.09,3.53,1.53,4.83,1.53
			c0.38,0,0.9,0,1.52,0H-24h49.57c-1.3,0-3.64-0.44-4.83-1.53C18.76,87.65,18.22,80.11,18.44,72.01z"/>
	</g>
</g>
</svg>
