<?xml version="1.0" encoding="utf-8"?>
<!-- Generator: Adobe Illustrator 25.0.0, SVG Export Plug-In . SVG Version: 6.00 Build 0)  -->
<svg version="1.1" id="paper-icon" xmlns="http://www.w3.org/2000/svg" xmlns:xlink="http://www.w3.org/1999/xlink" x="0px" y="0px"
	 viewBox="0 0 60 100" style="enable-background:new 0 0 60 100;" xml:space="preserve">
<style type="text/css">
	.st0{fill:#FFFFFF;stroke:#434345;stroke-miterlimit:10;}
	.st1{fill:#97999C;}
</style>
<g id="paper">
	<path id="main-page" class="st0" d="M94.08,6.52H35.03c-7.24,0.68-8.83,7.46-9.11,11.59v3.17V91h59.65h3.54
		c2.33-0.38,4.95-1.71,4.96-5.8c0-17.01-0.01-65.81,0-69.19c0.02-4.1,4.55-11.18,11.87-8.54C105.95,7.48,105.49,6.16,94.08,6.52z"/>
	<g id="text-lines">
		<rect x="34.37" y="15.41" class="st1" width="44.28" height="2.38"/>
		<rect x="34.37" y="21.79" class="st1" width="52.24" height="2.38"/>
		<g>
			<rect x="34.37" y="28.18" class="st1" width="23.52" height="2.38"/>
		</g>
		<rect x="42.29" y="34.56" class="st1" width="44.28" height="2.38"/>
		<rect x="33.23" y="40.95" class="st1" width="53.22" height="2.38"/>
		<g>
			<rect x="33.23" y="47.34" class="st1" width="14.46" height="2.38"/>
			<rect x="50.28" y="47.34" class="st1" width="18.74" height="2.38"/>
		</g>
		<rect x="33.23" y="53.72" class="st1" width="44.28" height="2.38"/>
		<g>
			<rect x="33.23" y="60.11" class="st1" width="26.4" height="2.38"/>
		</g>
		<rect x="33.02" y="66.49" class="st1" width="53.22" height="2.38"/>
	</g>
	<g id="bottom-lip">
		<path class="st0" d="M78.44,72.01H25.4h-6.36h-8.65c-0.23,8.1,0.32,15.64,2.3,17.46c1.19,1.09,3.53,1.53,4.83,1.53
			c0.38,0,0.9,0,1.52,0H36h49.57c-1.3,0-3.64-0.44-4.83-1.53C78.76,87.65,78.22,80.11,78.44,72.01z"/>
	</g>
</g>
</svg>
