<?xml version="1.0" encoding="utf-8"?>
<!-- Generator: Adobe Illustrator 25.0.0, SVG Export Plug-In . SVG Version: 6.00 Build 0)  -->
<svg version="1.1" id="rock-icon" xmlns="http://www.w3.org/2000/svg" xmlns:xlink="http://www.w3.org/1999/xlink" x="0px" y="0px"
	 viewBox="0 0 120 100" style="enable-background:new 0 0 120 100;" xml:space="preserve">
<style type="text/css">
	.st0{fill:#8F8F8F;stroke:#808285;stroke-miterlimit:10;}
	.st1{fill:#666766;stroke:#7B7B7B;stroke-miterlimit:10;}
</style>
<g id="rock">
	<g id="rock-form">
		<path id="small-rock" class="st0" d="M5.22,69.56c0,0,3.6-24.84,12.24-26.28c8.64-1.44,13.68-23.4,20.52-25.56
			c6.84-2.16,37.08-8.64,48.96,5.76s11.52,23.76,14.76,26.28c3.24,2.52,14.4,11.52,12.96,17.28C113.22,72.8,35.46,85.76,5.22,69.56z
			"/>
		<path id="big-rock" class="st0" d="M57.34,80.9c-1.54-6.57,2.6-18.36,12.68-22.68s11.16,2.16,19.08,3.6
			c7.92,1.44,13.62,6.53,13.83,9.92c0.21,3.4,5.07,2.77,4.53,9.16C103.14,86.9,58.88,87.47,57.34,80.9z"/>
	</g>
	<g id="rock-detail">
		<path class="st1" d="M22.32,42.92c0,0,1.98-0.54,2.7-1.8c0.72-1.26,10.62,4.32,19.44,5.58c8.82,1.26,17.46,1.62,17.46,1.62
			S37.62,49.58,22.32,42.92z"/>
		<path class="st1" d="M28.8,36.62l-1.08,2.34c0,0,5.94,0.36,7.02,0.72C35.82,40.04,29.52,38.42,28.8,36.62z"/>
		<path class="st1" d="M97.74,49.76c0,0,0.72,1.08,1.62,1.8s-17.64,2.88-20.34,2.16C76.32,53,95.54,52.36,97.74,49.76z"/>
		<path class="st1" d="M7.02,68.48c0,0,0.36-5.22,1.44-6.66c1.08-1.44-3.58,7.54,16.02,11.52C24.48,73.34,13.14,71.9,7.02,68.48z"/>
		<path class="st1" d="M102.78,75.56c-11.34,5.29-22.14,1.85-22.14,1.85c13.68,1.91,20.7-4.07,20.7-4.07L102.78,75.56L102.78,75.56z
			"/>
		<path class="st1" d="M83.88,61.66c0,0-2.17,2.41-4.32,2.85c0,0,6.3,0.26,5.76-1.4C84.78,61.46,83.88,61.66,83.88,61.66z"/>
		<path class="st1" d="M73.26,31.58c0,0,0,2.88,1.98,2.88C77.22,34.46,75.06,31.58,73.26,31.58z"/>
		<path class="st1" d="M80.64,34.46c0,0-1.08,0.72,0,1.44s1.49,0,0.99-0.72C81.13,34.46,80.64,34.46,80.64,34.46z"/>
		<path class="st1" d="M78.09,31.04c0,0-0.42,0.21,0,0.54c0.42,0.33,1.02,0.36,0.84,0S78.09,31.04,78.09,31.04z"/>
	</g>
</g>
</svg>
