<svg id="a21db41b-a484-458c-b974-1205e44d8d24" data-name="Layer 1" xmlns="http://www.w3.org/2000/svg" viewBox="0 0 400 400"><defs><style>.a3fba14d-6dc8-4bfc-a1f7-48206dbf9527{fill:#5c1448;}</style></defs><g id="fa7a709f-a354-4b78-b51c-eeec461eff0c" data-name="text"><path class="a3fba14d-6dc8-4bfc-a1f7-48206dbf9527" d="M10.62,6.69h8.91c5.25,0,9.55,2,9.55,8.36,0,6.16-4.3,8.81-9.55,8.81H16.22v9.66h-5.6Zm8.46,12.36c2.94,0,4.52-1.37,4.52-4S22,11.51,19.08,11.51H16.22v7.54Zm-.57,3.22,3.87-3.88,7.9,15.13H24Z"/><path class="a3fba14d-6dc8-4bfc-a1f7-48206dbf9527" d="M32.73,20C32.73,11.23,37.29,6.2,44,6.2S55.2,11.26,55.2,20,50.64,34,44,34,32.73,28.75,32.73,20Zm16.74,0c0-5.38-2.13-8.55-5.51-8.55s-5.5,3.17-5.5,8.55,2.13,8.78,5.5,8.78S49.47,25.37,49.47,20Z"/><path class="a3fba14d-6dc8-4bfc-a1f7-48206dbf9527" d="M58.7,20.26c0-8.9,5.42-14.06,11.68-14.06a10.1,10.1,0,0,1,7.44,3.48l-2.95,3.89a6,6,0,0,0-4.37-2.13c-3.39,0-6.07,3.24-6.07,8.62s2.36,8.71,6,8.71a6.35,6.35,0,0,0,4.84-2.5l3,3.8a9.87,9.87,0,0,1-8,3.94C63.94,34,58.7,29.29,58.7,20.26Z"/><path class="a3fba14d-6dc8-4bfc-a1f7-48206dbf9527" d="M82,6.69h5.6v11h.14l7.37-11h6.15L93.73,17.4l8.87,16.12H96.46l-6-11.34-2.89,4.15v7.19H82Z"/><path class="a3fba14d-6dc8-4bfc-a1f7-48206dbf9527" d="M112.87,6.69h8.5c5.44,0,9.84,2.12,9.84,8.63,0,6.31-4.44,9.1-9.69,9.1h-3.06v9.1h-5.59Zm8.32,12.91c3.08,0,4.53-1.48,4.53-4.28s-1.65-3.81-4.68-3.81h-2.58V19.6Z"/><path class="a3fba14d-6dc8-4bfc-a1f7-48206dbf9527" d="M138.21,6.69h6.69l7.77,26.83h-5.92l-3.24-13.59c-.69-2.68-1.35-5.85-2-8.65h-.15c-.6,2.83-1.26,6-1.95,8.65l-3.25,13.59h-5.72Zm-2.65,15.72h11.9v4.72h-11.9Z"/><path class="a3fba14d-6dc8-4bfc-a1f7-48206dbf9527" d="M155.05,6.69h8.5c5.45,0,9.84,2.12,9.84,8.63,0,6.31-4.44,9.1-9.68,9.1h-3.06v9.1h-5.6Zm8.33,12.91c3.07,0,4.53-1.48,4.53-4.28s-1.66-3.81-4.69-3.81h-2.57V19.6Z"/><path class="a3fba14d-6dc8-4bfc-a1f7-48206dbf9527" d="M177.68,6.69h15.51v5.09h-9.91v5.39h8.43v5.08h-8.43v6.18h10.29v5.09H177.68Z"/><path class="a3fba14d-6dc8-4bfc-a1f7-48206dbf9527" d="M198.49,6.69h8.91c5.25,0,9.55,2,9.55,8.36,0,6.16-4.3,8.81-9.55,8.81h-3.32v9.66h-5.59Zm8.45,12.36c2.95,0,4.53-1.37,4.53-4s-1.58-3.54-4.53-3.54h-2.86v7.54Zm-.56,3.22,3.87-3.88,7.89,15.13h-6.26Z"/><path class="a3fba14d-6dc8-4bfc-a1f7-48206dbf9527" d="M227.76,30.13,231,26a9.48,9.48,0,0,0,6.08,2.8c2.33,0,3.48-1,3.48-2.58S239.12,24,237,23l-3.22-1.48a7.78,7.78,0,0,1-5-7.32c0-4.44,3.66-8,8.81-8a11,11,0,0,1,8,3.52l-2.82,3.82a7.68,7.68,0,0,0-5.14-2.1c-1.93,0-3.15.87-3.15,2.4S236,16.08,238.18,17l3.16,1.38c3,1.32,4.91,3.51,4.91,7.3,0,4.45-3.43,8.31-9.33,8.31A13,13,0,0,1,227.76,30.13Z"/><path class="a3fba14d-6dc8-4bfc-a1f7-48206dbf9527" d="M249.3,20.26c0-8.9,5.43-14.06,11.68-14.06a10.09,10.09,0,0,1,7.44,3.48l-2.95,3.89a6,6,0,0,0-4.37-2.13c-3.39,0-6.07,3.24-6.07,8.62s2.37,8.71,6,8.71a6.37,6.37,0,0,0,4.85-2.5l2.94,3.8a9.86,9.86,0,0,1-8,3.94C254.54,34,249.3,29.29,249.3,20.26Z"/><path class="a3fba14d-6dc8-4bfc-a1f7-48206dbf9527" d="M272.57,6.69h5.59V33.52h-5.59Z"/><path class="a3fba14d-6dc8-4bfc-a1f7-48206dbf9527" d="M282.4,30.13,285.61,26a9.48,9.48,0,0,0,6.08,2.8c2.33,0,3.47-1,3.47-2.58s-1.4-2.23-3.57-3.2l-3.21-1.48a7.78,7.78,0,0,1-5-7.32c0-4.44,3.66-8,8.81-8a11,11,0,0,1,8,3.52l-2.83,3.82a7.64,7.64,0,0,0-5.13-2.1c-1.93,0-3.16.87-3.16,2.4s1.62,2.24,3.78,3.18L296,18.4c3,1.32,4.91,3.51,4.91,7.3,0,4.45-3.42,8.31-9.32,8.31A13,13,0,0,1,282.4,30.13Z"/><path class="a3fba14d-6dc8-4bfc-a1f7-48206dbf9527" d="M302.82,30.13,306,26a9.45,9.45,0,0,0,6.07,2.8c2.34,0,3.48-1,3.48-2.58S314.18,24,312,23l-3.21-1.48a7.77,7.77,0,0,1-5-7.32c0-4.44,3.67-8,8.82-8a11,11,0,0,1,8,3.52l-2.83,3.82a7.68,7.68,0,0,0-5.13-2.1c-1.93,0-3.16.87-3.16,2.4s1.62,2.24,3.78,3.18l3.15,1.38c3,1.32,4.91,3.51,4.91,7.3,0,4.45-3.43,8.31-9.32,8.31A13.07,13.07,0,0,1,302.82,30.13Z"/><path class="a3fba14d-6dc8-4bfc-a1f7-48206dbf9527" d="M324.36,20c0-8.76,4.57-13.79,11.24-13.79S346.84,11.26,346.84,20s-4.57,14-11.24,14S324.36,28.75,324.36,20Zm16.75,0c0-5.38-2.13-8.55-5.51-8.55s-5.51,3.17-5.51,8.55,2.13,8.78,5.51,8.78S341.11,25.37,341.11,20Z"/><path class="a3fba14d-6dc8-4bfc-a1f7-48206dbf9527" d="M351.5,6.69h8.91c5.25,0,9.55,2,9.55,8.36,0,6.16-4.3,8.81-9.55,8.81H357.1v9.66h-5.6ZM360,19.05c2.94,0,4.52-1.37,4.52-4s-1.58-3.54-4.52-3.54H357.1v7.54Zm-.57,3.22,3.87-3.88,7.9,15.13H364.9Z"/><path class="a3fba14d-6dc8-4bfc-a1f7-48206dbf9527" d="M372.65,30.13,375.86,26a9.48,9.48,0,0,0,6.08,2.8c2.33,0,3.48-1,3.48-2.58S384,24,381.85,23l-3.22-1.48a7.78,7.78,0,0,1-5-7.32c0-4.44,3.66-8,8.81-8a11,11,0,0,1,8,3.52l-2.82,3.82a7.68,7.68,0,0,0-5.14-2.1c-1.93,0-3.16.87-3.16,2.4s1.62,2.24,3.78,3.18l3.16,1.38c3,1.32,4.9,3.51,4.9,7.3,0,4.45-3.42,8.31-9.32,8.31A13,13,0,0,1,372.65,30.13Z"/><path class="a3fba14d-6dc8-4bfc-a1f7-48206dbf9527" d="M10.43,57.45h8.5c5.45,0,9.84,2.11,9.84,8.63,0,6.3-4.44,9.09-9.69,9.09H16v9.1h-5.6Zm8.32,12.9c3.08,0,4.54-1.48,4.54-4.27s-1.66-3.82-4.69-3.82H16v8.09Z"/><path class="a3fba14d-6dc8-4bfc-a1f7-48206dbf9527" d="M35.77,57.45h6.69l7.77,26.82H44.31L41.07,70.69c-.68-2.69-1.34-5.86-2-8.66h-.15c-.6,2.84-1.26,6-1.94,8.66L33.72,84.27H28ZM33.12,73.17H45v4.71H33.12Z"/><path class="a3fba14d-6dc8-4bfc-a1f7-48206dbf9527" d="M52.62,57.45h8.5c5.44,0,9.83,2.11,9.83,8.63,0,6.3-4.44,9.09-9.68,9.09H58.21v9.1H52.62Zm8.32,12.9c3.07,0,4.53-1.48,4.53-4.27s-1.66-3.82-4.68-3.82H58.21v8.09Z"/><path class="a3fba14d-6dc8-4bfc-a1f7-48206dbf9527" d="M75.24,57.45H90.75v5.08H80.84v5.39h8.43V73H80.84v6.18H91.13v5.09H75.24Z"/><path class="a3fba14d-6dc8-4bfc-a1f7-48206dbf9527" d="M96.05,57.45H105c5.25,0,9.55,2,9.55,8.35,0,6.16-4.3,8.82-9.55,8.82h-3.31v9.65h-5.6Zm8.46,12.35c2.94,0,4.52-1.36,4.52-4s-1.58-3.54-4.52-3.54h-2.86V69.8ZM103.94,73l3.87-3.88,7.9,15.13h-6.26Z"/><path class="a3fba14d-6dc8-4bfc-a1f7-48206dbf9527" d="M125.32,80.88l3.21-4.16a9.49,9.49,0,0,0,6.08,2.81c2.34,0,3.48-1,3.48-2.59s-1.41-2.23-3.57-3.2l-3.21-1.48a7.77,7.77,0,0,1-5-7.31c0-4.45,3.66-8,8.81-8a11,11,0,0,1,8,3.52l-2.82,3.82a7.68,7.68,0,0,0-5.14-2.1c-1.92,0-3.15.87-3.15,2.4s1.62,2.25,3.78,3.18l3.15,1.38c3,1.33,4.91,3.51,4.91,7.3,0,4.45-3.43,8.31-9.32,8.31A13,13,0,0,1,125.32,80.88Z"/><path class="a3fba14d-6dc8-4bfc-a1f7-48206dbf9527" d="M146.86,71c0-8.9,5.43-14.06,11.68-14.06A10.07,10.07,0,0,1,166,60.43L163,64.32a6,6,0,0,0-4.36-2.13c-3.4,0-6.08,3.24-6.08,8.62s2.37,8.72,6,8.72A6.36,6.36,0,0,0,163.42,77l3,3.81a9.88,9.88,0,0,1-8,3.93C152.1,84.76,146.86,80.05,146.86,71Z"/><path class="a3fba14d-6dc8-4bfc-a1f7-48206dbf9527" d="M170.13,57.45h5.59V84.27h-5.59Z"/><path class="a3fba14d-6dc8-4bfc-a1f7-48206dbf9527" d="M180,80.88l3.21-4.16a9.49,9.49,0,0,0,6.08,2.81c2.33,0,3.48-1,3.48-2.59s-1.41-2.23-3.57-3.2l-3.22-1.48A7.77,7.77,0,0,1,181,65c0-4.45,3.66-8,8.81-8a11,11,0,0,1,8,3.52l-2.82,3.82a7.68,7.68,0,0,0-5.14-2.1c-1.93,0-3.16.87-3.16,2.4s1.62,2.25,3.78,3.18l3.16,1.38c3,1.33,4.9,3.51,4.9,7.3,0,4.45-3.42,8.31-9.32,8.31A13,13,0,0,1,180,80.88Z"/><path class="a3fba14d-6dc8-4bfc-a1f7-48206dbf9527" d="M200.38,80.88l3.22-4.16a9.49,9.49,0,0,0,6.07,2.81c2.34,0,3.48-1,3.48-2.59s-1.4-2.23-3.57-3.2l-3.21-1.48a7.76,7.76,0,0,1-5-7.31c0-4.45,3.66-8,8.81-8a11,11,0,0,1,8,3.52l-2.83,3.82a7.68,7.68,0,0,0-5.13-2.1c-1.93,0-3.16.87-3.16,2.4s1.62,2.25,3.78,3.18L214,69.15c3,1.33,4.91,3.51,4.91,7.3,0,4.45-3.42,8.31-9.32,8.31A13.07,13.07,0,0,1,200.38,80.88Z"/><path class="a3fba14d-6dc8-4bfc-a1f7-48206dbf9527" d="M221.92,70.74C221.92,62,226.49,57,233.16,57S244.4,62,244.4,70.74s-4.57,14-11.24,14S221.92,79.51,221.92,70.74Zm16.75,0c0-5.38-2.13-8.55-5.51-8.55s-5.5,3.17-5.5,8.55,2.13,8.79,5.5,8.79S238.67,76.12,238.67,70.74Z"/><path class="a3fba14d-6dc8-4bfc-a1f7-48206dbf9527" d="M249.06,57.45H258c5.24,0,9.55,2,9.55,8.35,0,6.16-4.31,8.82-9.55,8.82h-3.32v9.65h-5.6Zm8.46,12.35c2.94,0,4.52-1.36,4.52-4s-1.58-3.54-4.52-3.54h-2.86V69.8ZM257,73l3.87-3.88,7.9,15.13h-6.26Z"/><path class="a3fba14d-6dc8-4bfc-a1f7-48206dbf9527" d="M270.21,80.88l3.21-4.16a9.49,9.49,0,0,0,6.08,2.81c2.33,0,3.48-1,3.48-2.59s-1.41-2.23-3.57-3.2l-3.22-1.48a7.77,7.77,0,0,1-5-7.31c0-4.45,3.66-8,8.81-8a11,11,0,0,1,8,3.52l-2.82,3.82a7.68,7.68,0,0,0-5.14-2.1c-1.93,0-3.15.87-3.15,2.4s1.61,2.25,3.77,3.18l3.16,1.38c3,1.33,4.91,3.51,4.91,7.3,0,4.45-3.43,8.31-9.33,8.31A13,13,0,0,1,270.21,80.88Z"/><path class="a3fba14d-6dc8-4bfc-a1f7-48206dbf9527" d="M300.51,57.45h8.91c5.25,0,9.55,2,9.55,8.35,0,6.16-4.3,8.82-9.55,8.82h-3.31v9.65h-5.6ZM309,69.8c2.94,0,4.52-1.36,4.52-4s-1.58-3.54-4.52-3.54h-2.86V69.8ZM308.4,73l3.87-3.88,7.9,15.13h-6.26Z"/><path class="a3fba14d-6dc8-4bfc-a1f7-48206dbf9527" d="M322.62,70.74C322.62,62,327.18,57,333.85,57S345.09,62,345.09,70.74s-4.56,14-11.24,14S322.62,79.51,322.62,70.74Zm16.74,0c0-5.38-2.13-8.55-5.51-8.55s-5.5,3.17-5.5,8.55,2.13,8.79,5.5,8.79S339.36,76.12,339.36,70.74Z"/><path class="a3fba14d-6dc8-4bfc-a1f7-48206dbf9527" d="M348.59,71c0-8.9,5.42-14.06,11.68-14.06a10.1,10.1,0,0,1,7.44,3.48l-2.95,3.89a6,6,0,0,0-4.37-2.13c-3.39,0-6.07,3.24-6.07,8.62s2.37,8.72,6,8.72A6.36,6.36,0,0,0,365.14,77l2.95,3.81a9.86,9.86,0,0,1-8,3.93C353.83,84.76,348.59,80.05,348.59,71Z"/><path class="a3fba14d-6dc8-4bfc-a1f7-48206dbf9527" d="M371.85,57.45h5.6v11h.14l7.37-11h6.15l-7.49,10.7,8.87,16.12h-6.14l-6-11.33-2.89,4.14v7.19h-5.6Z"/><path class="a3fba14d-6dc8-4bfc-a1f7-48206dbf9527" d="M10.62,108.2h8.91c5.25,0,9.55,2,9.55,8.35,0,6.17-4.3,8.82-9.55,8.82H16.22V135h-5.6Zm8.46,12.36c2.94,0,4.52-1.37,4.52-4S22,113,19.08,113H16.22v7.55Zm-.57,3.21,3.87-3.88L30.28,135H24Z"/><path class="a3fba14d-6dc8-4bfc-a1f7-48206dbf9527" d="M32.73,121.49c0-8.76,4.56-13.78,11.23-13.78s11.24,5.06,11.24,13.78-4.56,14-11.24,14S32.73,130.26,32.73,121.49Zm16.74,0c0-5.37-2.13-8.55-5.51-8.55s-5.5,3.18-5.5,8.55,2.13,8.79,5.5,8.79S49.47,126.87,49.47,121.49Z"/><path class="a3fba14d-6dc8-4bfc-a1f7-48206dbf9527" d="M58.7,121.77c0-8.9,5.42-14.06,11.68-14.06a10.1,10.1,0,0,1,7.44,3.48l-2.95,3.89a6,6,0,0,0-4.37-2.14c-3.39,0-6.07,3.25-6.07,8.62s2.36,8.72,6,8.72a6.32,6.32,0,0,0,4.84-2.51l3,3.81a9.87,9.87,0,0,1-8,3.94C63.94,135.52,58.7,130.8,58.7,121.77Z"/><path class="a3fba14d-6dc8-4bfc-a1f7-48206dbf9527" d="M82,108.2h5.6v11h.14l7.37-11h6.15l-7.49,10.71L102.6,135H96.46l-6-11.33-2.89,4.14V135H82Z"/><path class="a3fba14d-6dc8-4bfc-a1f7-48206dbf9527" d="M112.87,108.2h8.5c5.44,0,9.84,2.11,9.84,8.63,0,6.3-4.44,9.09-9.69,9.09h-3.06V135h-5.59Zm8.32,12.91c3.08,0,4.53-1.49,4.53-4.28S124.07,113,121,113h-2.58v8.1Z"/><path class="a3fba14d-6dc8-4bfc-a1f7-48206dbf9527" d="M138.21,108.2h6.69L152.67,135h-5.92l-3.24-13.58c-.69-2.68-1.35-5.86-2-8.65h-.15c-.6,2.83-1.26,6-1.95,8.65L136.15,135h-5.72Zm-2.65,15.72h11.9v4.71h-11.9Z"/><path class="a3fba14d-6dc8-4bfc-a1f7-48206dbf9527" d="M155.05,108.2h8.5c5.45,0,9.84,2.11,9.84,8.63,0,6.3-4.44,9.09-9.68,9.09h-3.06V135h-5.6Zm8.33,12.91c3.07,0,4.53-1.49,4.53-4.28s-1.66-3.82-4.69-3.82h-2.57v8.1Z"/><path class="a3fba14d-6dc8-4bfc-a1f7-48206dbf9527" d="M177.68,108.2h15.51v5.09h-9.91v5.38h8.43v5.09h-8.43v6.18h10.29V135H177.68Z"/><path class="a3fba14d-6dc8-4bfc-a1f7-48206dbf9527" d="M198.49,108.2h8.91c5.25,0,9.55,2,9.55,8.35,0,6.17-4.3,8.82-9.55,8.82h-3.32V135h-5.59Zm8.45,12.36c2.95,0,4.53-1.37,4.53-4s-1.58-3.54-4.53-3.54h-2.86v7.55Zm-.56,3.21,3.87-3.88L218.14,135h-6.26Z"/><path class="a3fba14d-6dc8-4bfc-a1f7-48206dbf9527" d="M227.76,131.64l3.21-4.16a9.48,9.48,0,0,0,6.08,2.8c2.33,0,3.48-1,3.48-2.59s-1.41-2.23-3.57-3.19L233.74,123a7.76,7.76,0,0,1-5-7.31c0-4.44,3.66-8,8.81-8a11,11,0,0,1,8,3.51L242.7,115a7.73,7.73,0,0,0-5.14-2.1c-1.93,0-3.15.87-3.15,2.41s1.61,2.24,3.77,3.17l3.16,1.39c3,1.32,4.91,3.5,4.91,7.29,0,4.46-3.43,8.32-9.33,8.32A13.07,13.07,0,0,1,227.76,131.64Z"/><path class="a3fba14d-6dc8-4bfc-a1f7-48206dbf9527" d="M249.3,121.77c0-8.9,5.43-14.06,11.68-14.06a10.09,10.09,0,0,1,7.44,3.48l-2.95,3.89a6,6,0,0,0-4.37-2.14c-3.39,0-6.07,3.25-6.07,8.62s2.37,8.72,6,8.72a6.34,6.34,0,0,0,4.85-2.51l2.94,3.81a9.86,9.86,0,0,1-8,3.94C254.54,135.52,249.3,130.8,249.3,121.77Z"/><path class="a3fba14d-6dc8-4bfc-a1f7-48206dbf9527" d="M272.57,108.2h5.59V135h-5.59Z"/><path class="a3fba14d-6dc8-4bfc-a1f7-48206dbf9527" d="M282.4,131.64l3.21-4.16a9.48,9.48,0,0,0,6.08,2.8c2.33,0,3.47-1,3.47-2.59s-1.4-2.23-3.57-3.19L288.38,123a7.76,7.76,0,0,1-5-7.31c0-4.44,3.66-8,8.81-8a11,11,0,0,1,8,3.51L297.33,115a7.69,7.69,0,0,0-5.13-2.1c-1.93,0-3.16.87-3.16,2.41s1.62,2.24,3.78,3.17l3.15,1.39c3,1.32,4.91,3.5,4.91,7.29,0,4.46-3.42,8.32-9.32,8.32A13.07,13.07,0,0,1,282.4,131.64Z"/><path class="a3fba14d-6dc8-4bfc-a1f7-48206dbf9527" d="M302.82,131.64l3.22-4.16a9.45,9.45,0,0,0,6.07,2.8c2.34,0,3.48-1,3.48-2.59s-1.41-2.23-3.57-3.19L308.81,123a7.76,7.76,0,0,1-5-7.31c0-4.44,3.67-8,8.82-8a11,11,0,0,1,8,3.51L317.76,115a7.72,7.72,0,0,0-5.13-2.1c-1.93,0-3.16.87-3.16,2.41s1.62,2.24,3.78,3.17l3.15,1.39c3,1.32,4.91,3.5,4.91,7.29,0,4.46-3.43,8.32-9.32,8.32A13.11,13.11,0,0,1,302.82,131.64Z"/><path class="a3fba14d-6dc8-4bfc-a1f7-48206dbf9527" d="M324.36,121.49c0-8.76,4.57-13.78,11.24-13.78s11.24,5.06,11.24,13.78-4.57,14-11.24,14S324.36,130.26,324.36,121.49Zm16.75,0c0-5.37-2.13-8.55-5.51-8.55s-5.51,3.18-5.51,8.55,2.13,8.79,5.51,8.79S341.11,126.87,341.11,121.49Z"/><path class="a3fba14d-6dc8-4bfc-a1f7-48206dbf9527" d="M351.5,108.2h8.91c5.25,0,9.55,2,9.55,8.35,0,6.17-4.3,8.82-9.55,8.82H357.1V135h-5.6ZM360,120.56c2.94,0,4.52-1.37,4.52-4S362.9,113,360,113H357.1v7.55Zm-.57,3.21,3.87-3.88,7.9,15.13H364.9Z"/><path class="a3fba14d-6dc8-4bfc-a1f7-48206dbf9527" d="M372.65,131.64l3.21-4.16a9.48,9.48,0,0,0,6.08,2.8c2.33,0,3.48-1,3.48-2.59s-1.41-2.23-3.57-3.19L378.63,123a7.76,7.76,0,0,1-5-7.31c0-4.44,3.66-8,8.81-8a11,11,0,0,1,8,3.51L387.59,115a7.73,7.73,0,0,0-5.14-2.1c-1.93,0-3.16.87-3.16,2.41s1.62,2.24,3.78,3.17l3.16,1.39c3,1.32,4.9,3.5,4.9,7.29,0,4.46-3.42,8.32-9.32,8.32A13.07,13.07,0,0,1,372.65,131.64Z"/><path class="a3fba14d-6dc8-4bfc-a1f7-48206dbf9527" d="M10.43,159h8.5c5.45,0,9.84,2.11,9.84,8.63,0,6.31-4.44,9.09-9.69,9.09H16v9.1h-5.6Zm8.32,12.91c3.08,0,4.54-1.49,4.54-4.28s-1.66-3.81-4.69-3.81H16v8.09Z"/><path class="a3fba14d-6dc8-4bfc-a1f7-48206dbf9527" d="M35.77,159h6.69l7.77,26.82H44.31l-3.24-13.58c-.68-2.68-1.34-5.85-2-8.65h-.15c-.6,2.83-1.26,6-1.94,8.65l-3.25,13.58H28Zm-2.65,15.72H45v4.72H33.12Z"/><path class="a3fba14d-6dc8-4bfc-a1f7-48206dbf9527" d="M52.62,159h8.5c5.44,0,9.83,2.11,9.83,8.63,0,6.31-4.44,9.09-9.68,9.09H58.21v9.1H52.62Zm8.32,12.91c3.07,0,4.53-1.49,4.53-4.28s-1.66-3.81-4.68-3.81H58.21v8.09Z"/><path class="a3fba14d-6dc8-4bfc-a1f7-48206dbf9527" d="M75.24,159H90.75V164H80.84v5.38h8.43v5.09H80.84v6.18H91.13v5.08H75.24Z"/><path class="a3fba14d-6dc8-4bfc-a1f7-48206dbf9527" d="M96.05,159H105c5.25,0,9.55,2,9.55,8.36,0,6.16-4.3,8.81-9.55,8.81h-3.31v9.65h-5.6Zm8.46,12.36c2.94,0,4.52-1.37,4.52-4s-1.58-3.54-4.52-3.54h-2.86v7.54Zm-.57,3.21,3.87-3.88,7.9,15.13h-6.26Z"/><path class="a3fba14d-6dc8-4bfc-a1f7-48206dbf9527" d="M125.32,182.39l3.21-4.16a9.48,9.48,0,0,0,6.08,2.8c2.34,0,3.48-1,3.48-2.59s-1.41-2.23-3.57-3.19l-3.21-1.49a7.76,7.76,0,0,1-5-7.31c0-4.44,3.66-8,8.81-8a11,11,0,0,1,8,3.51l-2.82,3.83a7.69,7.69,0,0,0-5.14-2.11c-1.92,0-3.15.88-3.15,2.41s1.62,2.24,3.78,3.17l3.15,1.39c3,1.32,4.91,3.5,4.91,7.3,0,4.45-3.43,8.31-9.32,8.31A13,13,0,0,1,125.32,182.39Z"/><path class="a3fba14d-6dc8-4bfc-a1f7-48206dbf9527" d="M146.86,172.52c0-8.9,5.43-14.06,11.68-14.06a10.07,10.07,0,0,1,7.44,3.48L163,165.83a6,6,0,0,0-4.36-2.14c-3.4,0-6.08,3.25-6.08,8.63s2.37,8.71,6,8.71a6.35,6.35,0,0,0,4.84-2.5l3,3.8a9.89,9.89,0,0,1-8,3.94C152.1,186.27,146.86,181.55,146.86,172.52Z"/><path class="a3fba14d-6dc8-4bfc-a1f7-48206dbf9527" d="M170.13,159h5.59v26.82h-5.59Z"/><path class="a3fba14d-6dc8-4bfc-a1f7-48206dbf9527" d="M180,182.39l3.21-4.16a9.48,9.48,0,0,0,6.08,2.8c2.33,0,3.48-1,3.48-2.59s-1.41-2.23-3.57-3.19l-3.22-1.49a7.76,7.76,0,0,1-5-7.31c0-4.44,3.66-8,8.81-8a11,11,0,0,1,8,3.51l-2.82,3.83a7.69,7.69,0,0,0-5.14-2.11c-1.93,0-3.16.88-3.16,2.41s1.62,2.24,3.78,3.17l3.16,1.39c3,1.32,4.9,3.5,4.9,7.3,0,4.45-3.42,8.31-9.32,8.31A13,13,0,0,1,180,182.39Z"/><path class="a3fba14d-6dc8-4bfc-a1f7-48206dbf9527" d="M200.38,182.39l3.22-4.16a9.47,9.47,0,0,0,6.07,2.8c2.34,0,3.48-1,3.48-2.59s-1.4-2.23-3.57-3.19l-3.21-1.49a7.75,7.75,0,0,1-5-7.31c0-4.44,3.66-8,8.81-8a11,11,0,0,1,8,3.51l-2.83,3.83a7.69,7.69,0,0,0-5.13-2.11c-1.93,0-3.16.88-3.16,2.41s1.62,2.24,3.78,3.17l3.15,1.39c3,1.32,4.91,3.5,4.91,7.3,0,4.45-3.42,8.31-9.32,8.31A13.07,13.07,0,0,1,200.38,182.39Z"/><path class="a3fba14d-6dc8-4bfc-a1f7-48206dbf9527" d="M221.92,172.25c0-8.77,4.57-13.79,11.24-13.79s11.24,5.06,11.24,13.79-4.57,14-11.24,14S221.92,181,221.92,172.25Zm16.75,0c0-5.38-2.13-8.56-5.51-8.56s-5.5,3.18-5.5,8.56,2.13,8.78,5.5,8.78S238.67,177.63,238.67,172.25Z"/><path class="a3fba14d-6dc8-4bfc-a1f7-48206dbf9527" d="M249.06,159H258c5.24,0,9.55,2,9.55,8.36,0,6.16-4.31,8.81-9.55,8.81h-3.32v9.65h-5.6Zm8.46,12.36c2.94,0,4.52-1.37,4.52-4s-1.58-3.54-4.52-3.54h-2.86v7.54Zm-.57,3.21,3.87-3.88,7.9,15.13h-6.26Z"/><path class="a3fba14d-6dc8-4bfc-a1f7-48206dbf9527" d="M270.21,182.39l3.21-4.16a9.48,9.48,0,0,0,6.08,2.8c2.33,0,3.48-1,3.48-2.59s-1.41-2.23-3.57-3.19l-3.22-1.49a7.76,7.76,0,0,1-5-7.31c0-4.44,3.66-8,8.81-8a11,11,0,0,1,8,3.51l-2.82,3.83a7.69,7.69,0,0,0-5.14-2.11c-1.93,0-3.15.88-3.15,2.41s1.61,2.24,3.77,3.17l3.16,1.39c3,1.32,4.91,3.5,4.91,7.3,0,4.45-3.43,8.31-9.33,8.31A13,13,0,0,1,270.21,182.39Z"/><path class="a3fba14d-6dc8-4bfc-a1f7-48206dbf9527" d="M300.51,159h8.91c5.25,0,9.55,2,9.55,8.36,0,6.16-4.3,8.81-9.55,8.81h-3.31v9.65h-5.6ZM309,171.31c2.94,0,4.52-1.37,4.52-4s-1.58-3.54-4.52-3.54h-2.86v7.54Zm-.57,3.21,3.87-3.88,7.9,15.13h-6.26Z"/><path class="a3fba14d-6dc8-4bfc-a1f7-48206dbf9527" d="M322.62,172.25c0-8.77,4.56-13.79,11.23-13.79s11.24,5.06,11.24,13.79-4.56,14-11.24,14S322.62,181,322.62,172.25Zm16.74,0c0-5.38-2.13-8.56-5.51-8.56s-5.5,3.18-5.5,8.56,2.13,8.78,5.5,8.78S339.36,177.63,339.36,172.25Z"/><path class="a3fba14d-6dc8-4bfc-a1f7-48206dbf9527" d="M348.59,172.52c0-8.9,5.42-14.06,11.68-14.06a10.1,10.1,0,0,1,7.44,3.48l-2.95,3.89a6,6,0,0,0-4.37-2.14c-3.39,0-6.07,3.25-6.07,8.63s2.37,8.71,6,8.71a6.35,6.35,0,0,0,4.84-2.5l2.95,3.8a9.87,9.87,0,0,1-8,3.94C353.83,186.27,348.59,181.55,348.59,172.52Z"/><path class="a3fba14d-6dc8-4bfc-a1f7-48206dbf9527" d="M371.85,159h5.6v11h.14L385,159h6.15l-7.49,10.71,8.87,16.11h-6.14l-6-11.33-2.89,4.15v7.18h-5.6Z"/><path class="a3fba14d-6dc8-4bfc-a1f7-48206dbf9527" d="M10.62,209.71h8.91c5.25,0,9.55,2,9.55,8.35,0,6.16-4.3,8.82-9.55,8.82H16.22v9.65h-5.6Zm8.46,12.35c2.94,0,4.52-1.36,4.52-4s-1.58-3.54-4.52-3.54H16.22v7.54Zm-.57,3.22,3.87-3.88,7.9,15.13H24Z"/><path class="a3fba14d-6dc8-4bfc-a1f7-48206dbf9527" d="M32.73,223c0-8.76,4.56-13.79,11.23-13.79S55.2,214.27,55.2,223,50.64,237,44,237,32.73,231.76,32.73,223Zm16.74,0c0-5.38-2.13-8.55-5.51-8.55s-5.5,3.17-5.5,8.55,2.13,8.79,5.5,8.79S49.47,228.38,49.47,223Z"/><path class="a3fba14d-6dc8-4bfc-a1f7-48206dbf9527" d="M58.7,223.27c0-8.9,5.42-14.06,11.68-14.06a10.1,10.1,0,0,1,7.44,3.48l-2.95,3.89a6,6,0,0,0-4.37-2.13c-3.39,0-6.07,3.24-6.07,8.62s2.36,8.72,6,8.72a6.36,6.36,0,0,0,4.84-2.51l3,3.81a9.86,9.86,0,0,1-8,3.93C63.94,237,58.7,232.31,58.7,223.27Z"/><path class="a3fba14d-6dc8-4bfc-a1f7-48206dbf9527" d="M82,209.71h5.6v11h.14l7.37-11h6.15l-7.49,10.7,8.87,16.12H96.46l-6-11.33-2.89,4.14v7.19H82Z"/><path class="a3fba14d-6dc8-4bfc-a1f7-48206dbf9527" d="M112.87,209.71h8.5c5.44,0,9.84,2.11,9.84,8.62,0,6.31-4.44,9.1-9.69,9.1h-3.06v9.1h-5.59Zm8.32,12.9c3.08,0,4.53-1.48,4.53-4.28s-1.65-3.81-4.68-3.81h-2.58v8.09Z"/><path class="a3fba14d-6dc8-4bfc-a1f7-48206dbf9527" d="M138.21,209.71h6.69l7.77,26.82h-5.92l-3.24-13.59c-.69-2.68-1.35-5.85-2-8.65h-.15c-.6,2.83-1.26,6-1.95,8.65l-3.25,13.59h-5.72Zm-2.65,15.72h11.9v4.71h-11.9Z"/><path class="a3fba14d-6dc8-4bfc-a1f7-48206dbf9527" d="M155.05,209.71h8.5c5.45,0,9.84,2.11,9.84,8.62,0,6.31-4.44,9.1-9.68,9.1h-3.06v9.1h-5.6Zm8.33,12.9c3.07,0,4.53-1.48,4.53-4.28s-1.66-3.81-4.69-3.81h-2.57v8.09Z"/><path class="a3fba14d-6dc8-4bfc-a1f7-48206dbf9527" d="M177.68,209.71h15.51v5.08h-9.91v5.39h8.43v5.08h-8.43v6.18h10.29v5.09H177.68Z"/><path class="a3fba14d-6dc8-4bfc-a1f7-48206dbf9527" d="M198.49,209.71h8.91c5.25,0,9.55,2,9.55,8.35,0,6.16-4.3,8.82-9.55,8.82h-3.32v9.65h-5.59Zm8.45,12.35c2.95,0,4.53-1.36,4.53-4s-1.58-3.54-4.53-3.54h-2.86v7.54Zm-.56,3.22,3.87-3.88,7.89,15.13h-6.26Z"/><path class="a3fba14d-6dc8-4bfc-a1f7-48206dbf9527" d="M227.76,233.14,231,229a9.49,9.49,0,0,0,6.08,2.81c2.33,0,3.48-1,3.48-2.59S239.12,227,237,226l-3.22-1.48a7.77,7.77,0,0,1-5-7.31c0-4.45,3.66-8,8.81-8a11,11,0,0,1,8,3.52l-2.82,3.82a7.68,7.68,0,0,0-5.14-2.1c-1.93,0-3.15.87-3.15,2.4s1.61,2.25,3.77,3.18l3.16,1.38c3,1.33,4.91,3.51,4.91,7.3,0,4.45-3.43,8.31-9.33,8.31A13,13,0,0,1,227.76,233.14Z"/><path class="a3fba14d-6dc8-4bfc-a1f7-48206dbf9527" d="M249.3,223.27c0-8.9,5.43-14.06,11.68-14.06a10.09,10.09,0,0,1,7.44,3.48l-2.95,3.89a6,6,0,0,0-4.37-2.13c-3.39,0-6.07,3.24-6.07,8.62s2.37,8.72,6,8.72a6.38,6.38,0,0,0,4.85-2.51l2.94,3.81a9.85,9.85,0,0,1-8,3.93C254.54,237,249.3,232.31,249.3,223.27Z"/><path class="a3fba14d-6dc8-4bfc-a1f7-48206dbf9527" d="M272.57,209.71h5.59v26.82h-5.59Z"/><path class="a3fba14d-6dc8-4bfc-a1f7-48206dbf9527" d="M282.4,233.14l3.21-4.16a9.49,9.49,0,0,0,6.08,2.81c2.33,0,3.47-1,3.47-2.59s-1.4-2.23-3.57-3.2l-3.21-1.48a7.77,7.77,0,0,1-5-7.31c0-4.45,3.66-8,8.81-8a11,11,0,0,1,8,3.52l-2.83,3.82a7.64,7.64,0,0,0-5.13-2.1c-1.93,0-3.16.87-3.16,2.4s1.62,2.25,3.78,3.18l3.15,1.38c3,1.33,4.91,3.51,4.91,7.3,0,4.45-3.42,8.31-9.32,8.31A13,13,0,0,1,282.4,233.14Z"/><path class="a3fba14d-6dc8-4bfc-a1f7-48206dbf9527" d="M302.82,233.14,306,229a9.47,9.47,0,0,0,6.07,2.81c2.34,0,3.48-1,3.48-2.59S314.18,227,312,226l-3.21-1.48a7.77,7.77,0,0,1-5-7.31c0-4.45,3.67-8,8.82-8a11,11,0,0,1,8,3.52l-2.83,3.82a7.68,7.68,0,0,0-5.13-2.1c-1.93,0-3.16.87-3.16,2.4s1.62,2.25,3.78,3.18l3.15,1.38c3,1.33,4.91,3.51,4.91,7.3,0,4.45-3.43,8.31-9.32,8.31A13.07,13.07,0,0,1,302.82,233.14Z"/><path class="a3fba14d-6dc8-4bfc-a1f7-48206dbf9527" d="M324.36,223c0-8.76,4.57-13.79,11.24-13.79s11.24,5.06,11.24,13.79-4.57,14-11.24,14S324.36,231.76,324.36,223Zm16.75,0c0-5.38-2.13-8.55-5.51-8.55s-5.51,3.17-5.51,8.55,2.13,8.79,5.51,8.79S341.11,228.38,341.11,223Z"/><path class="a3fba14d-6dc8-4bfc-a1f7-48206dbf9527" d="M351.5,209.71h8.91c5.25,0,9.55,2,9.55,8.35,0,6.16-4.3,8.82-9.55,8.82H357.1v9.65h-5.6ZM360,222.06c2.94,0,4.52-1.36,4.52-4s-1.58-3.54-4.52-3.54H357.1v7.54Zm-.57,3.22,3.87-3.88,7.9,15.13H364.9Z"/><path class="a3fba14d-6dc8-4bfc-a1f7-48206dbf9527" d="M372.65,233.14l3.21-4.16a9.49,9.49,0,0,0,6.08,2.81c2.33,0,3.48-1,3.48-2.59S384,227,381.85,226l-3.22-1.48a7.77,7.77,0,0,1-5-7.31c0-4.45,3.66-8,8.81-8a11,11,0,0,1,8,3.52l-2.82,3.82a7.68,7.68,0,0,0-5.14-2.1c-1.93,0-3.16.87-3.16,2.4s1.62,2.25,3.78,3.18l3.16,1.38c3,1.33,4.9,3.51,4.9,7.3,0,4.45-3.42,8.31-9.32,8.31A13,13,0,0,1,372.65,233.14Z"/><path class="a3fba14d-6dc8-4bfc-a1f7-48206dbf9527" d="M10.43,260.46h8.5c5.45,0,9.84,2.11,9.84,8.63,0,6.3-4.44,9.09-9.69,9.09H16v9.1h-5.6Zm8.32,12.91c3.08,0,4.54-1.49,4.54-4.28s-1.66-3.82-4.69-3.82H16v8.1Z"/><path class="a3fba14d-6dc8-4bfc-a1f7-48206dbf9527" d="M35.77,260.46h6.69l7.77,26.82H44.31L41.07,273.7c-.68-2.68-1.34-5.86-2-8.65h-.15c-.6,2.83-1.26,6-1.94,8.65l-3.25,13.58H28Zm-2.65,15.72H45v4.71H33.12Z"/><path class="a3fba14d-6dc8-4bfc-a1f7-48206dbf9527" d="M52.62,260.46h8.5c5.44,0,9.83,2.11,9.83,8.63,0,6.3-4.44,9.09-9.68,9.09H58.21v9.1H52.62Zm8.32,12.91c3.07,0,4.53-1.49,4.53-4.28s-1.66-3.82-4.68-3.82H58.21v8.1Z"/><path class="a3fba14d-6dc8-4bfc-a1f7-48206dbf9527" d="M75.24,260.46H90.75v5.08H80.84v5.39h8.43V276H80.84v6.18H91.13v5.08H75.24Z"/><path class="a3fba14d-6dc8-4bfc-a1f7-48206dbf9527" d="M96.05,260.46H105c5.25,0,9.55,2,9.55,8.35,0,6.17-4.3,8.82-9.55,8.82h-3.31v9.65h-5.6Zm8.46,12.35c2.94,0,4.52-1.36,4.52-4s-1.58-3.54-4.52-3.54h-2.86v7.54Zm-.57,3.22,3.87-3.88,7.9,15.13h-6.26Z"/><path class="a3fba14d-6dc8-4bfc-a1f7-48206dbf9527" d="M125.32,283.9l3.21-4.16a9.48,9.48,0,0,0,6.08,2.8c2.34,0,3.48-1,3.48-2.59s-1.41-2.23-3.57-3.19l-3.21-1.49a7.76,7.76,0,0,1-5-7.31c0-4.45,3.66-8,8.81-8a11,11,0,0,1,8,3.51l-2.82,3.82a7.73,7.73,0,0,0-5.14-2.1c-1.92,0-3.15.87-3.15,2.41s1.62,2.24,3.78,3.17l3.15,1.39c3,1.32,4.91,3.5,4.91,7.29,0,4.46-3.43,8.32-9.32,8.32A13.09,13.09,0,0,1,125.32,283.9Z"/><path class="a3fba14d-6dc8-4bfc-a1f7-48206dbf9527" d="M146.86,274c0-8.9,5.43-14.06,11.68-14.06a10.07,10.07,0,0,1,7.44,3.48L163,267.34a6,6,0,0,0-4.36-2.14c-3.4,0-6.08,3.24-6.08,8.62s2.37,8.72,6,8.72a6.32,6.32,0,0,0,4.84-2.51l3,3.81a9.89,9.89,0,0,1-8,3.94C152.1,287.78,146.86,283.06,146.86,274Z"/><path class="a3fba14d-6dc8-4bfc-a1f7-48206dbf9527" d="M170.13,260.46h5.59v26.82h-5.59Z"/><path class="a3fba14d-6dc8-4bfc-a1f7-48206dbf9527" d="M180,283.9l3.21-4.16a9.48,9.48,0,0,0,6.08,2.8c2.33,0,3.48-1,3.48-2.59s-1.41-2.23-3.57-3.19l-3.22-1.49a7.76,7.76,0,0,1-5-7.31c0-4.45,3.66-8,8.81-8a11,11,0,0,1,8,3.51l-2.82,3.82a7.73,7.73,0,0,0-5.14-2.1c-1.93,0-3.16.87-3.16,2.41s1.62,2.24,3.78,3.17l3.16,1.39c3,1.32,4.9,3.5,4.9,7.29,0,4.46-3.42,8.32-9.32,8.32A13.07,13.07,0,0,1,180,283.9Z"/><path class="a3fba14d-6dc8-4bfc-a1f7-48206dbf9527" d="M200.38,283.9l3.22-4.16a9.47,9.47,0,0,0,6.07,2.8c2.34,0,3.48-1,3.48-2.59s-1.4-2.23-3.57-3.19l-3.21-1.49a7.75,7.75,0,0,1-5-7.31c0-4.45,3.66-8,8.81-8a11,11,0,0,1,8,3.51l-2.83,3.82a7.72,7.72,0,0,0-5.13-2.1c-1.93,0-3.16.87-3.16,2.41s1.62,2.24,3.78,3.17l3.15,1.39c3,1.32,4.91,3.5,4.91,7.29,0,4.46-3.42,8.32-9.32,8.32A13.11,13.11,0,0,1,200.38,283.9Z"/><path class="a3fba14d-6dc8-4bfc-a1f7-48206dbf9527" d="M221.92,273.75c0-8.76,4.57-13.78,11.24-13.78s11.24,5,11.24,13.78-4.57,14-11.24,14S221.92,282.52,221.92,273.75Zm16.75,0c0-5.37-2.13-8.55-5.51-8.55s-5.5,3.18-5.5,8.55,2.13,8.79,5.5,8.79S238.67,279.13,238.67,273.75Z"/><path class="a3fba14d-6dc8-4bfc-a1f7-48206dbf9527" d="M249.06,260.46H258c5.24,0,9.55,2,9.55,8.35,0,6.17-4.31,8.82-9.55,8.82h-3.32v9.65h-5.6Zm8.46,12.35c2.94,0,4.52-1.36,4.52-4s-1.58-3.54-4.52-3.54h-2.86v7.54ZM257,276l3.87-3.88,7.9,15.13h-6.26Z"/><path class="a3fba14d-6dc8-4bfc-a1f7-48206dbf9527" d="M270.21,283.9l3.21-4.16a9.48,9.48,0,0,0,6.08,2.8c2.33,0,3.48-1,3.48-2.59s-1.41-2.23-3.57-3.19l-3.22-1.49a7.76,7.76,0,0,1-5-7.31c0-4.45,3.66-8,8.81-8a11,11,0,0,1,8,3.51l-2.82,3.82a7.73,7.73,0,0,0-5.14-2.1c-1.93,0-3.15.87-3.15,2.41s1.61,2.24,3.77,3.17l3.16,1.39c3,1.32,4.91,3.5,4.91,7.29,0,4.46-3.43,8.32-9.33,8.32A13.07,13.07,0,0,1,270.21,283.9Z"/><path class="a3fba14d-6dc8-4bfc-a1f7-48206dbf9527" d="M300.51,260.46h8.91c5.25,0,9.55,2,9.55,8.35,0,6.17-4.3,8.82-9.55,8.82h-3.31v9.65h-5.6ZM309,272.81c2.94,0,4.52-1.36,4.52-4s-1.58-3.54-4.52-3.54h-2.86v7.54ZM308.4,276l3.87-3.88,7.9,15.13h-6.26Z"/><path class="a3fba14d-6dc8-4bfc-a1f7-48206dbf9527" d="M322.62,273.75c0-8.76,4.56-13.78,11.23-13.78s11.24,5,11.24,13.78-4.56,14-11.24,14S322.62,282.52,322.62,273.75Zm16.74,0c0-5.37-2.13-8.55-5.51-8.55s-5.5,3.18-5.5,8.55,2.13,8.79,5.5,8.79S339.36,279.13,339.36,273.75Z"/><path class="a3fba14d-6dc8-4bfc-a1f7-48206dbf9527" d="M348.59,274c0-8.9,5.42-14.06,11.68-14.06a10.1,10.1,0,0,1,7.44,3.48l-2.95,3.89a6,6,0,0,0-4.37-2.14c-3.39,0-6.07,3.24-6.07,8.62s2.37,8.72,6,8.72a6.32,6.32,0,0,0,4.84-2.51l2.95,3.81a9.87,9.87,0,0,1-8,3.94C353.83,287.78,348.59,283.06,348.59,274Z"/><path class="a3fba14d-6dc8-4bfc-a1f7-48206dbf9527" d="M371.85,260.46h5.6v11h.14l7.37-11h6.15l-7.49,10.7,8.87,16.12h-6.14l-6-11.33-2.89,4.14v7.19h-5.6Z"/><path class="a3fba14d-6dc8-4bfc-a1f7-48206dbf9527" d="M10.62,311.21h8.91c5.25,0,9.55,2,9.55,8.35,0,6.17-4.3,8.82-9.55,8.82H16.22V338h-5.6Zm8.46,12.36c2.94,0,4.52-1.37,4.52-4S22,316,19.08,316H16.22v7.54Zm-.57,3.21,3.87-3.88L30.28,338H24Z"/><path class="a3fba14d-6dc8-4bfc-a1f7-48206dbf9527" d="M32.73,324.51c0-8.77,4.56-13.79,11.23-13.79s11.24,5.06,11.24,13.79-4.56,14-11.24,14S32.73,333.27,32.73,324.51Zm16.74,0c0-5.38-2.13-8.56-5.51-8.56s-5.5,3.18-5.5,8.56,2.13,8.78,5.5,8.78S49.47,329.88,49.47,324.51Z"/><path class="a3fba14d-6dc8-4bfc-a1f7-48206dbf9527" d="M58.7,324.78c0-8.9,5.42-14.06,11.68-14.06a10.1,10.1,0,0,1,7.44,3.48l-2.95,3.89A6,6,0,0,0,70.5,316c-3.39,0-6.07,3.25-6.07,8.63s2.36,8.71,6,8.71a6.35,6.35,0,0,0,4.84-2.5l3,3.8a9.87,9.87,0,0,1-8,3.94C63.94,338.53,58.7,333.81,58.7,324.78Z"/><path class="a3fba14d-6dc8-4bfc-a1f7-48206dbf9527" d="M82,311.21h5.6v11h.14l7.37-11h6.15l-7.49,10.71L102.6,338H96.46l-6-11.33-2.89,4.15V338H82Z"/><path class="a3fba14d-6dc8-4bfc-a1f7-48206dbf9527" d="M112.87,311.21h8.5c5.44,0,9.84,2.11,9.84,8.63,0,6.3-4.44,9.09-9.69,9.09h-3.06V338h-5.59Zm8.32,12.91c3.08,0,4.53-1.49,4.53-4.28S124.07,316,121,316h-2.58v8.09Z"/><path class="a3fba14d-6dc8-4bfc-a1f7-48206dbf9527" d="M138.21,311.21h6.69L152.67,338h-5.92l-3.24-13.58c-.69-2.68-1.35-5.85-2-8.65h-.15c-.6,2.83-1.26,6-1.95,8.65L136.15,338h-5.72Zm-2.65,15.72h11.9v4.72h-11.9Z"/><path class="a3fba14d-6dc8-4bfc-a1f7-48206dbf9527" d="M155.05,311.21h8.5c5.45,0,9.84,2.11,9.84,8.63,0,6.3-4.44,9.09-9.68,9.09h-3.06V338h-5.6Zm8.33,12.91c3.07,0,4.53-1.49,4.53-4.28s-1.66-3.81-4.69-3.81h-2.57v8.09Z"/><path class="a3fba14d-6dc8-4bfc-a1f7-48206dbf9527" d="M177.68,311.21h15.51v5.09h-9.91v5.38h8.43v5.09h-8.43V333h10.29V338H177.68Z"/><path class="a3fba14d-6dc8-4bfc-a1f7-48206dbf9527" d="M198.49,311.21h8.91c5.25,0,9.55,2,9.55,8.35,0,6.17-4.3,8.82-9.55,8.82h-3.32V338h-5.59Zm8.45,12.36c2.95,0,4.53-1.37,4.53-4s-1.58-3.53-4.53-3.53h-2.86v7.54Zm-.56,3.21,3.87-3.88L218.14,338h-6.26Z"/><path class="a3fba14d-6dc8-4bfc-a1f7-48206dbf9527" d="M227.76,334.65l3.21-4.16a9.48,9.48,0,0,0,6.08,2.8c2.33,0,3.48-1,3.48-2.59s-1.41-2.23-3.57-3.19L233.74,326a7.76,7.76,0,0,1-5-7.31c0-4.44,3.66-8,8.81-8a11,11,0,0,1,8,3.51l-2.82,3.82a7.73,7.73,0,0,0-5.14-2.1c-1.93,0-3.15.88-3.15,2.41s1.61,2.24,3.77,3.17l3.16,1.39c3,1.32,4.91,3.5,4.91,7.29,0,4.46-3.43,8.32-9.33,8.32A13,13,0,0,1,227.76,334.65Z"/><path class="a3fba14d-6dc8-4bfc-a1f7-48206dbf9527" d="M249.3,324.78c0-8.9,5.43-14.06,11.68-14.06a10.09,10.09,0,0,1,7.44,3.48l-2.95,3.89A6,6,0,0,0,261.1,316c-3.39,0-6.07,3.25-6.07,8.63s2.37,8.71,6,8.71a6.37,6.37,0,0,0,4.85-2.5l2.94,3.8a9.86,9.86,0,0,1-8,3.94C254.54,338.53,249.3,333.81,249.3,324.78Z"/><path class="a3fba14d-6dc8-4bfc-a1f7-48206dbf9527" d="M272.57,311.21h5.59V338h-5.59Z"/><path class="a3fba14d-6dc8-4bfc-a1f7-48206dbf9527" d="M282.4,334.65l3.21-4.16a9.48,9.48,0,0,0,6.08,2.8c2.33,0,3.47-1,3.47-2.59s-1.4-2.23-3.57-3.19L288.38,326a7.76,7.76,0,0,1-5-7.31c0-4.44,3.66-8,8.81-8a11,11,0,0,1,8,3.51l-2.83,3.82a7.69,7.69,0,0,0-5.13-2.1c-1.93,0-3.16.88-3.16,2.41s1.62,2.24,3.78,3.17l3.15,1.39c3,1.32,4.91,3.5,4.91,7.29,0,4.46-3.42,8.32-9.32,8.32A13,13,0,0,1,282.4,334.65Z"/><path class="a3fba14d-6dc8-4bfc-a1f7-48206dbf9527" d="M302.82,334.65l3.22-4.16a9.45,9.45,0,0,0,6.07,2.8c2.34,0,3.48-1,3.48-2.59s-1.41-2.23-3.57-3.19L308.81,326a7.76,7.76,0,0,1-5-7.31c0-4.44,3.67-8,8.82-8a11,11,0,0,1,8,3.51l-2.83,3.82a7.72,7.72,0,0,0-5.13-2.1c-1.93,0-3.16.88-3.16,2.41s1.62,2.24,3.78,3.17l3.15,1.39c3,1.32,4.91,3.5,4.91,7.29,0,4.46-3.43,8.32-9.32,8.32A13.07,13.07,0,0,1,302.82,334.65Z"/><path class="a3fba14d-6dc8-4bfc-a1f7-48206dbf9527" d="M324.36,324.51c0-8.77,4.57-13.79,11.24-13.79s11.24,5.06,11.24,13.79-4.57,14-11.24,14S324.36,333.27,324.36,324.51Zm16.75,0c0-5.38-2.13-8.56-5.51-8.56s-5.51,3.18-5.51,8.56,2.13,8.78,5.51,8.78S341.11,329.88,341.11,324.51Z"/><path class="a3fba14d-6dc8-4bfc-a1f7-48206dbf9527" d="M351.5,311.21h8.91c5.25,0,9.55,2,9.55,8.35,0,6.17-4.3,8.82-9.55,8.82H357.1V338h-5.6ZM360,323.57c2.94,0,4.52-1.37,4.52-4S362.9,316,360,316H357.1v7.54Zm-.57,3.21,3.87-3.88,7.9,15.13H364.9Z"/><path class="a3fba14d-6dc8-4bfc-a1f7-48206dbf9527" d="M372.65,334.65l3.21-4.16a9.48,9.48,0,0,0,6.08,2.8c2.33,0,3.48-1,3.48-2.59s-1.41-2.23-3.57-3.19L378.63,326a7.76,7.76,0,0,1-5-7.31c0-4.44,3.66-8,8.81-8a11,11,0,0,1,8,3.51l-2.82,3.82a7.73,7.73,0,0,0-5.14-2.1c-1.93,0-3.16.88-3.16,2.41s1.62,2.24,3.78,3.17l3.16,1.39c3,1.32,4.9,3.5,4.9,7.29,0,4.46-3.42,8.32-9.32,8.32A13,13,0,0,1,372.65,334.65Z"/><path class="a3fba14d-6dc8-4bfc-a1f7-48206dbf9527" d="M10.43,362h8.5c5.45,0,9.84,2.12,9.84,8.63,0,6.31-4.44,9.1-9.69,9.1H16v9.1h-5.6Zm8.32,12.91c3.08,0,4.54-1.48,4.54-4.28s-1.66-3.81-4.69-3.81H16v8.09Z"/><path class="a3fba14d-6dc8-4bfc-a1f7-48206dbf9527" d="M35.77,362h6.69l7.77,26.83H44.31L41.07,375.2c-.68-2.68-1.34-5.85-2-8.65h-.15c-.6,2.83-1.26,6-1.94,8.65l-3.25,13.59H28Zm-2.65,15.73H45v4.71H33.12Z"/><path class="a3fba14d-6dc8-4bfc-a1f7-48206dbf9527" d="M52.62,362h8.5c5.44,0,9.83,2.12,9.83,8.63,0,6.31-4.44,9.1-9.68,9.1H58.21v9.1H52.62Zm8.32,12.91c3.07,0,4.53-1.48,4.53-4.28s-1.66-3.81-4.68-3.81H58.21v8.09Z"/><path class="a3fba14d-6dc8-4bfc-a1f7-48206dbf9527" d="M75.24,362H90.75v5.09H80.84v5.39h8.43v5.08H80.84v6.18H91.13v5.09H75.24Z"/><path class="a3fba14d-6dc8-4bfc-a1f7-48206dbf9527" d="M96.05,362H105c5.25,0,9.55,2,9.55,8.36,0,6.16-4.3,8.81-9.55,8.81h-3.31v9.66h-5.6Zm8.46,12.36c2.94,0,4.52-1.36,4.52-4s-1.58-3.54-4.52-3.54h-2.86v7.54Zm-.57,3.22,3.87-3.88,7.9,15.13h-6.26Z"/><path class="a3fba14d-6dc8-4bfc-a1f7-48206dbf9527" d="M125.32,385.4l3.21-4.16a9.48,9.48,0,0,0,6.08,2.8c2.34,0,3.48-1,3.48-2.58s-1.41-2.23-3.57-3.2l-3.21-1.48a7.77,7.77,0,0,1-5-7.31c0-4.45,3.66-8,8.81-8a11,11,0,0,1,8,3.52l-2.82,3.82a7.68,7.68,0,0,0-5.14-2.1c-1.92,0-3.15.87-3.15,2.4s1.62,2.24,3.78,3.18l3.15,1.38c3,1.33,4.91,3.51,4.91,7.3,0,4.45-3.43,8.31-9.32,8.31A13,13,0,0,1,125.32,385.4Z"/><path class="a3fba14d-6dc8-4bfc-a1f7-48206dbf9527" d="M146.86,375.53c0-8.9,5.43-14.06,11.68-14.06A10.07,10.07,0,0,1,166,365L163,368.84a6,6,0,0,0-4.36-2.13c-3.4,0-6.08,3.24-6.08,8.62s2.37,8.71,6,8.71a6.35,6.35,0,0,0,4.84-2.5l3,3.8a9.86,9.86,0,0,1-8,3.94C152.1,389.28,146.86,384.57,146.86,375.53Z"/><path class="a3fba14d-6dc8-4bfc-a1f7-48206dbf9527" d="M170.13,362h5.59v26.83h-5.59Z"/><path class="a3fba14d-6dc8-4bfc-a1f7-48206dbf9527" d="M180,385.4l3.21-4.16a9.48,9.48,0,0,0,6.08,2.8c2.33,0,3.48-1,3.48-2.58s-1.41-2.23-3.57-3.2l-3.22-1.48a7.77,7.77,0,0,1-5-7.31c0-4.45,3.66-8,8.81-8a11,11,0,0,1,8,3.52l-2.82,3.82a7.68,7.68,0,0,0-5.14-2.1c-1.93,0-3.16.87-3.16,2.4s1.62,2.24,3.78,3.18l3.16,1.38c3,1.33,4.9,3.51,4.9,7.3,0,4.45-3.42,8.31-9.32,8.31A13,13,0,0,1,180,385.4Z"/><path class="a3fba14d-6dc8-4bfc-a1f7-48206dbf9527" d="M200.38,385.4l3.22-4.16a9.47,9.47,0,0,0,6.07,2.8c2.34,0,3.48-1,3.48-2.58s-1.4-2.23-3.57-3.2l-3.21-1.48a7.76,7.76,0,0,1-5-7.31c0-4.45,3.66-8,8.81-8a11,11,0,0,1,8,3.52l-2.83,3.82a7.68,7.68,0,0,0-5.13-2.1c-1.93,0-3.16.87-3.16,2.4s1.62,2.24,3.78,3.18l3.15,1.38c3,1.33,4.91,3.51,4.91,7.3,0,4.45-3.42,8.31-9.32,8.31A13.07,13.07,0,0,1,200.38,385.4Z"/><path class="a3fba14d-6dc8-4bfc-a1f7-48206dbf9527" d="M221.92,375.26c0-8.76,4.57-13.79,11.24-13.79s11.24,5.06,11.24,13.79-4.57,14-11.24,14S221.92,384,221.92,375.26Zm16.75,0c0-5.38-2.13-8.55-5.51-8.55s-5.5,3.17-5.5,8.55,2.13,8.78,5.5,8.78S238.67,380.64,238.67,375.26Z"/><path class="a3fba14d-6dc8-4bfc-a1f7-48206dbf9527" d="M249.06,362H258c5.24,0,9.55,2,9.55,8.36,0,6.16-4.31,8.81-9.55,8.81h-3.32v9.66h-5.6Zm8.46,12.36c2.94,0,4.52-1.36,4.52-4s-1.58-3.54-4.52-3.54h-2.86v7.54Zm-.57,3.22,3.87-3.88,7.9,15.13h-6.26Z"/><path class="a3fba14d-6dc8-4bfc-a1f7-48206dbf9527" d="M270.21,385.4l3.21-4.16a9.48,9.48,0,0,0,6.08,2.8c2.33,0,3.48-1,3.48-2.58s-1.41-2.23-3.57-3.2l-3.22-1.48a7.77,7.77,0,0,1-5-7.31c0-4.45,3.66-8,8.81-8a11,11,0,0,1,8,3.52l-2.82,3.82a7.68,7.68,0,0,0-5.14-2.1c-1.93,0-3.15.87-3.15,2.4s1.61,2.24,3.77,3.18l3.16,1.38c3,1.33,4.91,3.51,4.91,7.3,0,4.45-3.43,8.31-9.33,8.31A13,13,0,0,1,270.21,385.4Z"/><path class="a3fba14d-6dc8-4bfc-a1f7-48206dbf9527" d="M300.51,362h8.91c5.25,0,9.55,2,9.55,8.36,0,6.16-4.3,8.81-9.55,8.81h-3.31v9.66h-5.6ZM309,374.32c2.94,0,4.52-1.36,4.52-4s-1.58-3.54-4.52-3.54h-2.86v7.54Zm-.57,3.22,3.87-3.88,7.9,15.13h-6.26Z"/><path class="a3fba14d-6dc8-4bfc-a1f7-48206dbf9527" d="M322.62,375.26c0-8.76,4.56-13.79,11.23-13.79s11.24,5.06,11.24,13.79-4.56,14-11.24,14S322.62,384,322.62,375.26Zm16.74,0c0-5.38-2.13-8.55-5.51-8.55s-5.5,3.17-5.5,8.55,2.13,8.78,5.5,8.78S339.36,380.64,339.36,375.26Z"/><path class="a3fba14d-6dc8-4bfc-a1f7-48206dbf9527" d="M348.59,375.53c0-8.9,5.42-14.06,11.68-14.06a10.1,10.1,0,0,1,7.44,3.48l-2.95,3.89a6,6,0,0,0-4.37-2.13c-3.39,0-6.07,3.24-6.07,8.62s2.37,8.71,6,8.71a6.35,6.35,0,0,0,4.84-2.5l2.95,3.8a9.85,9.85,0,0,1-8,3.94C353.83,389.28,348.59,384.57,348.59,375.53Z"/><path class="a3fba14d-6dc8-4bfc-a1f7-48206dbf9527" d="M371.85,362h5.6v11h.14L385,362h6.15l-7.49,10.71,8.87,16.12h-6.14l-6-11.33-2.89,4.14v7.19h-5.6Z"/></g></svg>