<?xml version="1.0" encoding="utf-8"?>
<!-- Generator: Adobe Illustrator 25.0.0, SVG Export Plug-In . SVG Version: 6.00 Build 0)  -->
<svg version="1.1" id="scissors-icon" xmlns="http://www.w3.org/2000/svg" xmlns:xlink="http://www.w3.org/1999/xlink" x="0px"
	 y="0px" viewBox="0 0 120 100" style="enable-background:new 0 0 120 100;" xml:space="preserve">
<style type="text/css">
	.st0{fill:#C7C7C7;stroke:#8C8E90;stroke-miterlimit:10;}
	.st1{fill:#BD5875;stroke:#BD5875;stroke-miterlimit:10;}
	.st2{fill:#FFFFFF;}
	.st3{fill:#414DA1;}
</style>
<g id="top-scissor">
	<path id="top-blade" class="st0" d="M66.83,49.42L44.67,2.84c0,0-7.21,1.52-8.27,7.15c-1.07,5.63,12.65,50.3,12.65,50.3
		c5.67-2.78,13.88,5.38,13.88,5.38l9.5-5.38L66.83,49.42z"/>
	<path id="top-finger-hole" class="st1" d="M86.23,69.43c-2.86,0-5.55,0.61-7.9,1.69l-5.9-10.83l-9.5,5.38
		c2.49,2.99,5.26,9.65,7.16,14.78c-0.23,0.92-0.35,1.87-0.35,2.85c0,7.66,7.39,13.86,16.5,13.86s16.5-6.21,16.5-13.86
		C102.73,75.64,95.34,69.43,86.23,69.43z M86.1,92.04c-5.59,0-10.13-3.94-10.13-8.8s4.54-8.8,10.13-8.8c5.6,0,10.13,3.94,10.13,8.8
		S91.7,92.04,86.1,92.04z"/>
	<path id="shine2" class="st2" d="M50.81,16.89l-9.3,15.52c0.93,3.39,1.97,7.04,2.88,10.2l9.86-18.43L50.81,16.89z"/>
	<path id="shine1" class="st2" d="M55.66,27.09L45.33,46.05c0.31,1.07,0.66,2.28,0.96,3.28l10.42-20.06L55.66,27.09z"/>
	<circle id="scissor-bolt" class="st3" cx="60" cy="54" r="3.82"/>
</g>
</svg>
